<svg width="200" height="200" viewBox="0 0 200 200" fill="none" xmlns="http://www.w3.org/2000/svg">
<rect width="200" height="200" rx="20" fill="url(#paint0_linear_33_11)"/>
<path d="M140.125 160H59.875C53.05 160 47.5 154.45 47.5 147.625V89.875C47.5 83.05 53.05 77.5 59.875 77.5H140.125C146.95 77.5 152.5 83.05 152.5 89.875V147.55C152.5 154.375 146.95 159.925 140.125 159.925V160ZM59.875 85C57.175 85 55 87.175 55 89.875V147.55C55 150.25 57.175 152.425 59.875 152.425H140.125C142.825 152.425 145 150.25 145 147.55V89.875C145 87.175 142.825 85 140.125 85H59.875Z" fill="white"/>
<path d="M134.05 85H65.95V74.05C65.95 55.3 81.25 40 100 40C118.75 40 134.05 55.3 134.05 74.05V85ZM73.45 77.5H126.55V74.05C126.55 59.425 114.625 47.5 100 47.5C85.375 47.5 73.45 59.425 73.45 74.05V77.5Z" fill="white"/>
<path d="M130 126.25C134.142 126.25 137.5 122.892 137.5 118.75C137.5 114.608 134.142 111.25 130 111.25C125.858 111.25 122.5 114.608 122.5 118.75C122.5 122.892 125.858 126.25 130 126.25Z" fill="white"/>
<path d="M100 126.25C104.142 126.25 107.5 122.892 107.5 118.75C107.5 114.608 104.142 111.25 100 111.25C95.8579 111.25 92.5 114.608 92.5 118.75C92.5 122.892 95.8579 126.25 100 126.25Z" fill="white"/>
<path d="M70 126.25C74.1421 126.25 77.5 122.892 77.5 118.75C77.5 114.608 74.1421 111.25 70 111.25C65.8579 111.25 62.5 114.608 62.5 118.75C62.5 122.892 65.8579 126.25 70 126.25Z" fill="white"/>
<defs>
<linearGradient id="paint0_linear_33_11" x1="100" y1="0" x2="100" y2="200" gradientUnits="userSpaceOnUse">
<stop stop-color="#5EB7CB"/>
<stop offset="1" stop-color="#2F5B65"/>
</linearGradient>
</defs>
</svg>
